<svg width="33" height="33" viewBox="0 0 33 33" fill="none" xmlns="http://www.w3.org/2000/svg">
<g opacity="0.8">
<path d="M16.5 9.625C16.5 8.16631 15.9205 6.76736 14.8891 5.73591C13.8576 4.70446 12.4587 4.125 11 4.125H2.75V24.75H12.375C13.469 24.75 14.5182 25.1846 15.2918 25.9582C16.0654 26.7318 16.5 27.781 16.5 28.875M16.5 9.625V28.875M16.5 9.625C16.5 8.16631 17.0795 6.76736 18.1109 5.73591C19.1424 4.70446 20.5413 4.125 22 4.125H30.25V24.75H20.625C19.531 24.75 18.4818 25.1846 17.7082 25.9582C16.9346 26.7318 16.5 27.781 16.5 28.875" stroke="#0F172B" stroke-width="4" stroke-linecap="round" stroke-linejoin="round"/>
</g>
</svg>
